<?xml version="1.0" encoding="utf-8"?>
<!-- Generator: Adobe Illustrator 25.4.1, SVG Export Plug-In . SVG Version: 6.00 Build 0)  -->
<!DOCTYPE svg PUBLIC "-//W3C//DTD SVG 1.1//EN" "http://www.w3.org/Graphics/SVG/1.1/DTD/svg11.dtd" [
	<!ENTITY ns_extend "http://ns.adobe.com/Extensibility/1.0/">
	<!ENTITY ns_ai "http://ns.adobe.com/AdobeIllustrator/10.0/">
	<!ENTITY ns_graphs "http://ns.adobe.com/Graphs/1.0/">
	<!ENTITY ns_vars "http://ns.adobe.com/Variables/1.0/">
	<!ENTITY ns_imrep "http://ns.adobe.com/ImageReplacement/1.0/">
	<!ENTITY ns_sfw "http://ns.adobe.com/SaveForWeb/1.0/">
	<!ENTITY ns_custom "http://ns.adobe.com/GenericCustomNamespace/1.0/">
	<!ENTITY ns_adobe_xpath "http://ns.adobe.com/XPath/1.0/">
]>
<svg version="1.1" id="Layer_1" xmlns:x="&ns_extend;" xmlns:i="&ns_ai;" xmlns:graph="&ns_graphs;"
	 xmlns="http://www.w3.org/2000/svg" xmlns:xlink="http://www.w3.org/1999/xlink" x="0px" y="0px" viewBox="0 0 248.1000061 76.5"
	 style="enable-background:new 0 0 248.1000061 76.5;" xml:space="preserve">
<style type="text/css">
	.st0{fill:#323E48;}
	.st1{fill:#008423;}
	.st2{fill:#005745;}
	.st3{fill:#323E48;stroke:#323E48;stroke-width:0.25;stroke-miterlimit:10;}
</style>
<metadata>
	<sfw  xmlns="&ns_sfw;">
		<slices></slices>
		<sliceSourceBounds  bottomLeftOrigin="true" height="76.5" width="247.8999939" x="0" y="0"></sliceSourceBounds>
	</sfw>
</metadata>
<path class="st0" d="M29.6000004,8.8999996C45.5999985,8.8999996,58.7000008,22,58.7000008,38
	c0,16.0999985-13.1000023,29.0999985-29.1000004,29.0999985S0.4,54,0.4,38C0.4,21.8999996,13.5,8.8999996,29.6000004,8.8999996z
	 M29.6000004,8.3999996C13.3000002,8.3999996,0,21.7000008,0,38s13.3000002,29.5999985,29.6000004,29.5999985
	S59.2000008,54.2999992,59.2000008,38C59.0999985,21.7000008,45.9000015,8.3999996,29.6000004,8.3999996z"/>
<path class="st0" d="M29.6000004,67.3000031C13.3999996,67.3000031,0.2,54.0999985,0.2,38
	C0.2,21.7999992,13.3999996,8.7000008,29.5,8.7000008c16.2000008,0,29.2999992,13.2000008,29.2999992,29.2999992
	C58.9000015,54.0999985,45.7000008,67.3000031,29.6000004,67.3000031z M29.6000004,9.1000004C13.6000004,9.1000004,0.7,22,0.7,38
	c0,15.9000015,13,28.9000015,28.8999996,28.9000015S58.5,53.9000015,58.5,38C58.4000015,22,45.5,9.1000004,29.6000004,9.1000004z"/>
<path class="st1" d="M29.6000004,64.6999969c3.6999989,0,7.1999989-0.7999992,10.3999996-2.0999985l-10.2999992-51.5
	L19.5,62.7000008C22.6000004,64,26,64.6999969,29.6000004,64.6999969z"/>
<path class="st2" d="M27.6000004,11L27.6000004,11L27.6000004,11z"/>
<rect x="69.1999969" class="st0" width="0.8000031" height="76.5"/>
<path class="st2" d="M54,49c1.5999985-3.4000015,2.5-7.2000008,2.5-11.2000008c0-10.3999996-6-19.5-14.7000008-24
	c-2.7000008-1.3000002-5.5-2.1999998-8.6000023-2.6000004c-0.4000015,0-0.7999992-0.1000004-1.2000008-0.1000004
	l11.6000023,49.5999985c0.5-0.2999992,1.0999985-0.7000008,1.5999985-1.0999985l-8.2999992-35.4000015h3l10.2000008,30.9000015
	c0.2999992-0.2999992,0.5999985-0.7000008,0.7999992-1l-6-18h3.7000008L54,49z"/>
<path class="st2" d="M5.5,49C3.9000001,45.5999985,3,41.7999992,3,37.7999992c0-10.3999996,6-19.5,14.7000008-24
	c2.7000008-1.3000002,5.5-2.1999998,8.6000004-2.6000004c0.3999996,0,0.7999992-0.1000004,1.2000008-0.1000004
	L15.8999996,60.7000008c-0.5-0.2999992-1.1000004-0.7000008-1.6000004-1.0999985l8.2999992-35.4000015h-3L9.3000002,55.0999985
	C9,54.7999992,8.6999998,54.3999977,8.5,54.0999985l6-18h-3.6999998L5.5,49z"/>
<path class="st0" d="M232.1000061,12.6000004l-1-2.1000004l-17,37h3.3000031l5.3999939-11.9000015h16.3999939L244.5999908,47.5
	h3.3000031L232.1000061,12.6000004z M224.1999969,32.9000015l7-15.2999992l7,15.2999992H224.1999969z M207.5,42.2000008
	l-25.6000061-29.5h-2.6000061V47.5h3.1999969V17.8999996l25.6999969,29.5000019h2.6000061V12.6999998h-3.1999969L207.5,42.2000008
	L207.5,42.2000008z M105.8000031,12.3999996L104.9000015,10.5l-17,37h3.3000031l5.4000015-11.9000015H113L118.4000015,47.5
	h3.3000031L105.8000031,12.3999996z M97.9000015,32.9000015l7-15.2999992l7,15.2999992H97.9000015z M139.8000031,30.2000008
	C143.9000092,28.5,146,25.7000008,146,21.8000011c0-2.7000008-1.1000061-9.1000004-11.6000061-9.1000004h-9V47.5h3.1999969V31
	h4.3999939c4.1000061,0,5.3000031,0.6000004,9.3000031,6.9000015l6.1000061,9.5h3.6999969l-8-12.2999992
	C142.5,32.9000015,141.3000031,31.1000004,139.8000031,30.2000008z M134,28.2999992h-5.3999939V15.3999996h5.3000031
	c5.6000061,0,8.8000031,2.2999992,8.8000031,6.3999996C142.6999969,26,139.6000061,28.2999992,134,28.2999992z
	 M158.1000061,31.2999992h15.6000061v-2.7000008h-15.6000061V15.3999996h16v-2.6999998H155V47.5h19.6000061v-2.7000008h-16.3999939
	v-13.5H158.1000061z"/>
<g>
	<rect x="90.6999969" y="55.9000015" class="st3" width="1.0999985" height="7.5999985"/>
	<polygon class="st3" points="107.4000015,55.9000015 108.4000015,55.9000015 108.4000015,63.5999985 107.5,63.5999985 
		102.4000015,57.7000008 102.4000015,63.5999985 101.3000031,63.5999985 101.3000031,55.9000015 102.1999969,55.9000015 
		107.4000015,61.9000015 	"/>
	<polygon class="st3" points="122.6999969,55.9000015 123.8000031,55.9000015 120.5999985,63.5999985 120.4000015,63.5999985 
		117.0999985,55.9000015 118.1999969,55.9000015 120.5,61.2999992 	"/>
	<polygon class="st3" points="132.5,55.9000015 136.8000031,55.9000015 136.8000031,56.9000015 133.6000061,56.9000015 
		133.6000061,59.2000008 136.6999969,59.2000008 136.6999969,60.2000008 133.6000061,60.2000008 133.6000061,62.5999985 
		136.8999939,62.5999985 136.8999939,63.5999985 132.5,63.5999985 	"/>
	<path class="st3" d="M147.8000031,60.4000015l-0.8000031-0.5c-0.5-0.2999992-0.8999939-0.5999985-1.1000061-0.9000015
		c-0.1999969-0.2999992-0.3000031-0.7000008-0.3000031-1.0999985c0-0.5999985,0.1999969-1.0999985,0.6000061-1.5
		c0.3999939-0.4000015,1-0.5999985,1.6000061-0.5999985s1.1999969,0.2000008,1.8000031,0.5v1.2000008
		c-0.6000061-0.5-1.1000061-0.7999992-1.8000031-0.7999992c-0.3999939,0-0.6999969,0.0999985-0.8999939,0.2000008
		c-0.1999969,0.2000008-0.3000031,0.4000015-0.3000031,0.5999985c0,0.2000008,0.1000061,0.4000015,0.3000031,0.5999985
		c0.1999969,0.2000008,0.3999939,0.4000015,0.8000031,0.5999985l0.8000031,0.5
		c0.8999939,0.5999985,1.3999939,1.2999992,1.3999939,2.0999985c0,0.5999985-0.1999969,1.0999985-0.6000061,1.5
		s-0.8999939,0.5999985-1.6000061,0.5999985c-0.8000031,0-1.3999939-0.2000008-2.1000061-0.7000008v-1.4000015
		c0.6000061,0.7000008,1.3000031,1.0999985,2.1000061,1.0999985c0.3000031,0,0.6000061-0.0999985,0.8999939-0.2999992
		c0.1999969-0.2000008,0.3000031-0.4000015,0.3000031-0.7000008C148.8000031,61.2000008,148.5,60.7999992,147.8000031,60.4000015z"
		/>
	<polygon class="st3" points="158.3000031,55.9000015 164.6000061,55.9000015 164.6000061,56.9000015 162,56.9000015 
		162,63.5999985 160.8999939,63.5999985 160.8999939,56.9000015 158.3000031,56.9000015 	"/>
	<path class="st3" d="M176.5,55.7999992c1.1999969,0,2.1999969,0.4000015,2.8999939,1.0999985
		c0.8000031,0.7000008,1.1999969,1.7000008,1.1999969,2.7999992s-0.3999939,2.0999985-1.1999969,2.7999992
		s-1.8000031,1.0999985-3,1.0999985S174.2999878,63.1999931,173.5,62.4999962
		c-0.8000031-0.7000008-1.1999969-1.7000008-1.1999969-2.7999992s0.3999939-2.0999985,1.1999969-2.7999992
		C174.3999939,56.2000008,175.3999939,55.7999992,176.5,55.7999992z M176.6000061,56.9000015
		c-0.8999939,0-1.6000061,0.2999992-2.1999969,0.7999992s-0.8000031,1.2000008-0.8000031,2.0999985
		c0,0.7999992,0.3000031,1.5,0.8000031,2.0999985c0.6000061,0.5,1.3000031,0.7999992,2.1000061,0.7999992
		c0.8999939,0,1.6000061-0.2999992,2.1000061-0.7999992s0.8999939-1.2999992,0.8999939-2.0999985s-0.3000031-1.5-0.8999939-2
		S177.3999939,56.9000015,176.6000061,56.9000015z"/>
	<path class="st3" d="M189.8999939,63.5999985V56h1.8999939c0.8000031,0,1.3999939,0.2000008,1.8000031,0.5999985
		c0.5,0.4000015,0.6999969,0.9000015,0.6999969,1.5999985c0,0.4000015-0.1000061,0.7999992-0.3000031,1.2000008
		c-0.1999969,0.2999992-0.5,0.5999985-1,0.7000008c0.1999969,0.2000008,0.5,0.4000015,0.6999969,0.7000008
		s0.6000061,0.7999992,1,1.4000015c0.3000031,0.4000015,0.5,0.7999992,0.6000061,1l0.3999939,0.5h-1.3000031l-0.3000031-0.5
		c0,0,0,0-0.1000061-0.0999985l-0.1999969-0.2999992l-0.6999969-1.2000008
		c-0.1999969-0.2999992-0.3999939-0.5999985-0.6000061-0.7000008c-0.1999969-0.2000008-0.3999939-0.2999992-0.5-0.4000015
		c-0.1999969-0.0999985-0.3999939-0.0999985-0.8000031-0.0999985H191v3.2999992h-1.1000061V63.5999985z M191.3000031,56.9000015H191
		v2.4000015h0.3999939c0.6000061,0,0.8999939,0,1.1000061-0.0999985s0.3999939-0.2000008,0.5-0.4000015
		s0.1999969-0.4000015,0.1999969-0.7000008c0-0.2000008-0.1000061-0.5-0.1999969-0.7000008
		c-0.1000061-0.2000008-0.3000031-0.2999992-0.5-0.4000015S191.8000031,56.9000015,191.3000031,56.9000015z"/>
	<path class="st3" d="M206.3000031,60.4000015l-0.8000031-0.5C205,59.6000023,204.6000061,59.3000031,204.3999939,59
		c-0.1999969-0.2999992-0.3000031-0.7000008-0.3000031-1.0999985c0-0.5999985,0.1999969-1.0999985,0.6000061-1.5
		c0.3999939-0.4000015,1-0.5999985,1.6000061-0.5999985s1.1999969,0.2000008,1.8000031,0.5v1.2000008
		c-0.6000061-0.5-1.1000061-0.7999992-1.8000031-0.7999992c-0.3999939,0-0.6999969,0.0999985-0.8999939,0.2000008
		c-0.1999969,0.2000008-0.3000031,0.4000015-0.3000031,0.5999985c0,0.2000008,0.1000061,0.4000015,0.3000031,0.5999985
		c0.1999969,0.2000008,0.3999939,0.4000015,0.8000031,0.5999985l0.8000031,0.5
		c0.8999939,0.5999985,1.3999939,1.2999992,1.3999939,2.0999985c0,0.5999985-0.1999969,1.0999985-0.6000061,1.5
		s-0.8999939,0.5999985-1.6000061,0.5999985c-0.8000031,0-1.3999939-0.2000008-2.1000061-0.7000008v-1.4000015
		c0.6000061,0.7000008,1.3000031,1.0999985,2.1000061,1.0999985c0.3000031,0,0.6000061-0.0999985,0.8999939-0.2999992
		c0.1999969-0.2000008,0.3000031-0.4000015,0.3000031-0.7000008C207.3999939,61.2000008,207,60.7999992,206.3000031,60.4000015z"/>
	<polygon class="st3" points="228.3999939,55.9000015 229.5,55.9000015 229.5,62.5999985 232.8999939,62.5999985 
		232.8999939,63.5999985 228.3999939,63.5999985 	"/>
	<path class="st3" d="M241.6000061,63.5999985v-7.7000008H244c0.6999969,0,1.3000031,0.2000008,1.6999969,0.5999985
		s0.6999969,0.9000015,0.6999969,1.5999985c0,0.4000015-0.1000061,0.7999992-0.3000031,1.2000008
		c-0.1999969,0.2999992-0.5,0.5999985-0.8999939,0.7000008c-0.3999939,0.2000008-0.8999939,0.2000008-1.6999969,0.2000008
		h-0.8000031v3.2999992h-1.1000061v0.1000023H241.6000061z M243.8999939,56.9000015h-1.1000061v2.4000015h1.1999969
		c0.3999939,0,0.8000031-0.0999985,1-0.2999992s0.3999939-0.5,0.3999939-0.9000015
		C245.3000031,57.2999992,244.8000031,56.9000015,243.8999939,56.9000015z"/>
</g>
</svg>
